HIERARCHY
ROOT Hips
{
	OFFSET -0.329877763728 -24.4660629613 2.00479004756
	CHANNELS 6 Xposition Yposition Zposition Zrotation Yrotation Xrotation
	JOINT LeftHip
	{
		OFFSET 6.43045451238 -8.94645916239 -1.06809101062
		CHANNELS 3 Zrotation Yrotation Xrotation
		JOINT LeftKnee
		{
			OFFSET 3.30135246261 -34.8346160462 0.0779060968364
			CHANNELS 3 Zrotation Yrotation Xrotation
			JOINT LeftFoot
			{
				OFFSET -1.3705836636 -36.2073617795 -4.02554226443
				CHANNELS 3 Zrotation Yrotation Xrotation
				End LeftToe
				{
                                  OFFSET 2.34341917442 -5.14946552422 11.4772393556
				}
			}
		}
	}
	JOINT RightHip
	{
		OFFSET -6.24687720783 -8.79839871389 -0.873389338493
		CHANNELS 3 Zrotation Yrotation Xrotation
		JOINT RightKnee
		{
			OFFSET -3.58266701617 -35.7117149919 -0.356428989114
			CHANNELS 3 Zrotation Yrotation Xrotation
			JOINT RightFoot
			{
				OFFSET 1.59422348267 -36.2350596391 -3.85889889923
				CHANNELS 3 Zrotation Yrotation Xrotation
				End RightToe
				{
                                        OFFSET -2.11341253106 -4.45623566076 11.8297559484
				}
			}
		}
	}
	JOINT Waist
	{
		OFFSET -0.275695449289 10.7698939045 -2.17214189619
		CHANNELS 3 Zrotation Yrotation Xrotation
		JOINT Spine
		{
			OFFSET 0.704068676379 15.0541400035 0.540079944864
			CHANNELS 3 Zrotation Yrotation Xrotation
                        JOINT Chest
                        {
                            OFFSET 0.139286827596 5.70959528411 2.28371053983
                            CHANNELS 3 Zrotation Yrotation Xrotation
                            JOINT Neck
                            {
                                OFFSET -0.439343478204 21.61001533 -4.0660667833
                                CHANNELS 3 Zrotation Yrotation Xrotation
                                End Head
                                {
                                        OFFSET 0.118647810234 27.5304094063 2.25167391033
                                }
                            }
                            JOINT LeftInnerShoulder
                            {
                                OFFSET 7.63582428307 11.9789663446 -3.10218461398
                                CHANNELS 3 Zrotation Yrotation Xrotation
                                JOINT LeftShoulder
                                {
                                        OFFSET 9.15722468989 2.67701342045 -0.816787515234
                                        CHANNELS 3 Zrotation Yrotation Xrotation
                                        JOINT LeftElbow
                                        {
                                                OFFSET 24.1203607256 -1.03510320377 -2.35378974951
                                                CHANNELS 3 Zrotation Yrotation Xrotation
                                                End LeftWrist
                                                {
                                                        OFFSET 22.9851390898 0.631538935272 -0.158432909065
                                                }
                                        }
                                }
                            }
                            JOINT RightInnerShoulder
                            {
                                OFFSET -8.00462512908 11.6130450062 -3.61457397593
                                CHANNELS 3 Zrotation Yrotation Xrotation
                                JOINT RightShoulder
                                {
                                        OFFSET -9.5986707078 2.93441048654 -0.915176762381
                                        CHANNELS 3 Zrotation Yrotation Xrotation
                                        JOINT RightElbow
                                        {
                                                OFFSET -23.3320939747 -1.03461185593 -1.83108952015
                                                CHANNELS 3 Zrotation Yrotation Xrotation
                                                End RightWrist
                                                {
                                                        OFFSET -23.391227683 0.366010555542 -0.639257264933
                                                }
                                        }
                                }
                            }
                        }
                }
            }
}
MOTION
Frames: 10
Frame Time: 0.0333333333333
0.00000 0.00000 0.00000 10.43449 -76.75863 21.56927 -1.40053 -6.95659 -44.18600 -11.47274 7.95739 81.66082 7.69079 5.97613 -13.92827 -3.07984 2.00744 -54.86882 2.96996 -9.26268 86.63581 7.31293 -11.33034 -8.09271 3.11803 -3.37064 47.03163 6.61528 -4.67793 -5.24562 4.70089 -1.89705 -1.05850 -4.21146 4.35291 -18.21903 3.23857 -50.30861 -17.78786 2.60066 -32.67365 -21.20593 16.08573 -18.92839 -27.06261 -1.64525 43.30038 -14.71726 8.39016 27.82075 -12.89440 -37.45293 35.40379 -33.08046
-3.04148 3.87842 0.01925 -22.03835 -82.04870 51.65930 1.02250 -6.69376 -50.66811 -9.14629 9.49845 85.17861 5.00480 8.58082 -12.01672 -0.40869 5.22747 -57.41925 3.93767 -8.95263 90.39197 4.26065 -10.74766 -14.76688 2.21745 -2.40982 49.52461 4.76231 -3.76754 -4.75226 4.07644 -0.60211 0.35920 -6.18449 6.45608 -17.13345 8.21815 -46.36653 -19.79757 0.14558 -27.92978 -17.94809 17.65389 -22.51775 -27.24332 -6.14026 45.14004 -16.27399 8.79214 32.30502 -14.72384 -32.38568 32.82306 -29.35111
-3.42887 8.96421 0.00038 -43.98293 -82.51875 74.77763 4.28295 -8.15440 -64.53536 -8.33926 11.40583 91.28146 5.18971 8.11543 -10.23822 -0.13126 4.31291 -59.68218 3.62930 -9.53145 92.40938 4.06990 -12.30780 -13.64620 1.88921 -0.26030 53.10464 6.10296 -4.59163 -8.64956 5.15289 -0.82466 0.93138 -5.82420 7.79010 -18.55366 12.98689 -45.82322 -22.94751 3.49685 -25.94694 -18.64506 10.96715 -18.39240 -23.62500 -9.16745 43.85340 -18.51757 8.68960 33.61349 -14.47926 -31.95263 33.41251 -28.20288
-7.63837 7.70791 0.03001 -59.83565 -84.21619 88.38062 5.15496 -4.29696 -74.32293 -6.83349 17.19632 93.35820 7.42860 8.31207 -16.63469 -0.18293 1.16623 -58.15367 4.58961 -8.50731 94.36608 5.60317 -12.03968 -19.46875 2.17770 1.65844 55.91232 5.43828 -4.74982 -10.21997 4.50720 -0.33540 2.23127 -7.39212 6.91501 -19.29341 14.62916 -44.68628 -23.81867 1.95101 -27.22534 -19.25368 9.72168 -20.46468 -21.30870 -10.47921 42.27379 -17.74884 8.96001 32.40459 -16.50144 -30.91516 33.73252 -28.01192
-10.63626 7.86999 -0.00006 -120.90525 -85.06227 147.78409 7.31511 0.65576 -80.08663 -5.25746 21.61543 87.69751 4.71462 7.02184 -15.20573 2.02562 -0.68525 -42.17897 6.24163 -3.02590 78.64546 6.56962 -13.55304 -14.99473 1.10869 5.10766 55.52874 3.67775 -7.17772 -6.55811 3.79470 -0.35306 1.89736 -8.38192 7.58002 -18.67870 11.98701 -45.97882 -21.09809 7.98470 -21.27120 -23.03862 10.75737 -21.72640 -27.26688 -10.58666 43.60925 -17.71583 7.12663 31.61592 -17.03378 -31.85498 36.20320 -29.97167
-17.62640 4.76848 -0.04598 -128.46289 -81.51376 152.03204 9.93919 4.10586 -92.72887 -0.36929 25.86242 95.80688 -0.47415 5.18455 -8.68576 4.55092 -4.12716 -21.16659 10.92895 3.93165 62.25862 1.18604 -10.72333 -21.55787 3.09865 8.13402 56.31820 3.11858 -10.06431 -4.59053 3.85761 -0.36432 2.23031 -9.77388 8.50159 -15.70127 11.40354 -48.16748 -21.57228 12.16480 -18.79704 -27.22962 9.71955 -14.66383 -35.64117 -9.93846 44.52480 -17.17600 4.98765 31.29335 -17.20435 -28.68396 36.94136 -29.24290
-20.09737 1.05676 -0.10591 -151.12120 -76.62643 178.28934 10.04378 7.79851 -92.24356 -3.83420 27.07353 80.84840 4.99199 5.65394 -17.70332 0.17937 -3.68102 -29.02481 7.30627 4.59396 69.07688 10.28972 -15.56462 -9.72276 -1.13526 9.15989 54.24638 1.06489 -10.40916 -8.77157 1.66098 -1.61507 2.52410 -9.86579 13.21583 -15.94643 12.44932 -44.50119 -20.17857 13.03167 -18.42852 -29.74580 1.81684 -9.18863 -33.64520 -11.73116 39.55019 -18.76371 15.56618 36.41757 -7.59890 -29.56996 41.92672 -26.93927
-28.55791 -1.73085 -0.18999 -139.12049 -77.70198 165.80871 9.37210 8.39652 -94.90283 1.15153 30.51402 84.23117 -1.49099 5.31327 -7.25755 4.89641 -4.73489 -11.92804 9.67446 9.02135 54.87024 1.82308 -12.05705 -23.90653 1.27024 9.25658 52.77244 0.86251 -12.00414 -5.79487 2.06242 -1.54517 2.68977 -8.77210 13.82581 -15.03933 9.97266 -42.51967 -19.64916 11.63634 -17.50276 -27.80820 9.87328 -17.31146 -31.04279 -10.19746 38.31267 -17.44246 13.11978 33.84261 -9.20735 -27.81126 47.23860 -20.92152
-33.77114 -6.38368 -0.25655 -139.36555 -77.11653 165.34648 8.90616 9.16504 -93.66096 1.03715 31.88540 81.22992 -0.73027 5.79600 -8.97804 4.72506 -8.33122 -2.93212 8.58384 10.08224 45.10210 1.89303 -12.79348 -23.12553 1.36408 9.97741 48.98287 -0.11671 -12.73063 -4.37322 1.57199 -1.32858 3.46851 -8.59101 10.00522 -11.91088 10.55771 -41.31833 -18.97779 9.66406 -18.26637 -28.48735 12.06277 -18.46353 -27.45301 -11.90591 37.31127 -17.26209 13.38619 33.66835 -10.18070 -21.59615 45.86149 -12.59271
-40.33825 -11.95743 -0.26583 -140.50952 -74.98493 168.54205 8.92578 11.91226 -92.35406 1.07568 33.45181 85.12558 0.51811 3.34541 -7.91643 2.63027 -11.11709 0.14453 8.18929 9.68640 40.24269 2.42506 -10.73591 -19.06303 1.52416 10.77071 46.01027 -1.19075 -12.05212 -5.12291 0.86753 -0.70250 3.12094 -10.53692 9.87816 -9.10894 10.38050 -39.98259 -18.36216 5.67527 -20.15682 -26.96194 10.79381 -18.30155 -20.89457 -12.12457 36.76233 -16.60765 14.93103 34.74073 -9.58650 -19.04343 45.30678 -8.20274
